<svg id="Full_Logo_-_Red_on_Transparent" data-name="Full Logo - Red on Transparent" xmlns="http://www.w3.org/2000/svg" viewBox="0 0 1628.12 556.93"><title>full_white-on-transparent</title><path id="Logo" d="M251.21,325.69L197.14,349.6c-21.09,9.33-42.16,18.74-63.31,27.93-2.18.95-6,2.25-7.34,1s-0.18-4.72.44-6.88c4.34-15.12,9-30.15,13.17-45.33a10.76,10.76,0,0,0-1.45-8.22c-7-9.19-14.34-18.11-21.91-26.83-2.84-3.27-3.53-6.09-2-10.18a256.26,256.26,0,0,0,8-24.64,11.64,11.64,0,0,0-1.57-8.77c-9.17-12.28-18.84-24.18-28.3-36.24-4.92-6.27-4.38-8.09,3.23-9.35C126.92,197,157.78,192,188.64,187c8.32-1.35,16.8-2.05,24.92-4.17,17.56-4.59,34.84-1.14,52.2.75,9.92,1.08,19.85,2.14,29.74,3.5,4.15,0.57,6.36-.83,8.33-4.51,11.09-20.74,22.44-41.35,33.72-62,4.59-8.41,4.62-8.4,12-2.76,16.93,13,33.75,26.07,50.87,38.78,2.94,2.18,10.77,3.77,10.77,3.77s24.11,2.83,34.34-.88,37.31-29.07,41.7-33.73c5.69-6,11.76-7,19.68-5.33,18.64,4,37.44,7.18,56.23,10.42,4.1,0.71,6.11,2.46,7.29,6.41,4.57,15.29,9.27,30.54,14.36,45.66a13.87,13.87,0,0,0,6,7.14q24.87,13.48,50.17,26.15a25.37,25.37,0,0,0,10.81,2.35c42.88,0.4,85.77.59,128.65,0.85a37.19,37.19,0,0,1,6.65.21c1.81,0.34,4.41,1,4.94,2.31s-0.81,3.67-2,5c-28.37,33.33-56.59,66.79-85.44,99.7-6.35,7.24-14.9,12.57-22.56,18.63q-59.32,46.93-118.82,93.63a20.88,20.88,0,0,1-12,4.13c-36.66,0-73.32-.53-110-1a10.48,10.48,0,0,1-5.54-1.34c-18.87-12.91-37.76-25.8-56.33-39.13-4.8-3.45-8.77-3.55-14-1.57-32,12-64,23.75-96.06,35.53-7.91,2.91-9,1.93-8-6.26q3.92-31.37,7.62-62.76a9.94,9.94,0,0,0-.71-5.09C262.71,349.8,257.15,338.21,251.21,325.69Zm42-53.29,0.66,1.72,143.66-4.48L405,172Zm260.52,6.81,5.15,145.84,1.53,0.23L631,293.23ZM225.62,187.31L98,208.2l58.79,73.39Zm6.7,1.4-69,94.51,114.39-7.56ZM637.09,295.19L567.13,426l1.35,1,125.79-99.34ZM287.52,280.66l56.7,62.83,88.27-65.78-0.7-1.49ZM546.29,436.17L441,358.34c0,24.42,0,48.59,0,72.75,0,3.84,1.81,5,5.34,4.93,6.88-.08,13.76.14,20.64,0.14C492.65,436.19,518.37,436.17,546.29,436.17ZM441.4,350.86l104.54,77.29,1.25-.94L498.46,319.42Zm-102.81-2.79-57-32.75L268.36,421.8l1.61,0.71Zm208.94-66.41c-13.82,10.84-26.21,20.87-39,30.39-4.19,3.12-4.12,5.76-2.17,10,14.4,31.44,28.58,63,42.85,94.49,0.68,1.49,1.56,2.89,3.3,6.1Zm154.63,38.57,79.38-92.87-79.38,15.35v77.52ZM582.86,197.69L554.71,273,630,286.64ZM395.79,171.9l-0.27-1.08c-28.67,7.41-57.36,14.76-86,22.42-1.51.41-3.16,3.41-3.29,5.3-0.47,6.63-.35,13.3-0.37,20,0,11.2,0,22.4,0,34.12Zm43.12,108.83-83.83,62.44c24.86,2.26,49.2,3,73.54,3.89,4.2,0.15,4.55-2.39,4.82-5.49,0.77-8.84,1.69-17.66,2.49-26.5C436.93,304.11,437.84,293.15,438.91,280.73Zm61.83-154.66,3,87.58L560.07,137Zm-156.62-4.55-34.5,63.3,1.37,1.44,87.82-22.81ZM157.3,293.36l-24,77.6,71.62-32.19ZM369,392.12L343,352.43l-66.88,72.62,0.89,1Zm77.32-126.5,50-43L449,171.91ZM506.22,224l43,45.57,27.66-73.87ZM297.76,193.67l-59.34-6.84L278,262.58ZM380.36,395l53.33,36.61V355.8Zm314.27-74.33V247.38l-53.24,43.08ZM496.78,308.82V230.44l-48.84,42Zm0.66-94.15-3-86.7-43.66,36.72ZM167.53,291.49c14.79,15,28.38,29,42.25,42.66,1.11,1.09,4.47.89,6.27,0.12,15.68-6.72,31.26-13.7,46.84-20.64a41.44,41.44,0,0,0,4.41-2.82ZM564.93,141L511.35,213.8c22.26-7.48,43.74-16,65.12-24.82,1.14-.47,2.3-3.34,1.92-4.64C574.2,170.2,569.7,156.16,564.93,141ZM445.54,278.48l-6.21,66.39,54.8-30.24ZM503.9,308l41.87-33L503.9,230.68V308Zm87.46-110.37-1,.92,42.71,80.42c0.76-1.78,1.28-2.52,1.37-3.3,1.86-16.5,3.72-33,5.37-49.53a5.18,5.18,0,0,0-2.08-4.16C622.34,213.72,606.83,205.69,591.36,197.61ZM349.5,350.83l26,40,49.25-36.25-0.58-1.35Zm89.57-96.44,1.16-.21,2.59-86.46H410.16Zm200.74,29.3L692,241.44l-46-14.41ZM276.75,306.23L278.81,282l-90.67,5.92-0.08,1.2Zm385.62-80.74c10.18,3.25,19.43,6.31,28.75,9.11,3.14,0.94,6.63,2.18,9.69,1.66,16.88-2.86,33.67-6.23,50.49-9.42l-0.14-1.35H662.37ZM284.8,287c-0.6,7.44-1.26,13.1-1.37,18.78a6.28,6.28,0,0,0,2.51,4.7c12.91,7.66,26,15.07,39,22.54l0.66-.8Zm-2.7-15.69,1.76,0.92c2.71-2.47,5.56-4.8,8.09-7.43s6.23-5.21,6.37-8c0.66-13.55.3-27.15,0.3-40.73l-0.75-.17ZM121,282.37h28.76l-20.65-24.79Zm31.36,7H123.89l20.23,24.84Zm118.29,62.73L275.21,315,257,323.3Z" style="fill:#d74034;stroke:#d74034;stroke-miterlimit:10;stroke-width:5px"/><path d="M926.36,259.65q-14.75-2-21.37-2t-9.19,1.56a5.36,5.36,0,0,0-2.56,4.94A4.86,4.86,0,0,0,896,268.9q2.81,1.38,13.25,3.19t14.81,5.69q4.37,3.88,4.38,13.75T922.17,306q-6.31,4.63-18.44,4.63a111,111,0,0,1-19.25-2.12l-3.87-.62,0.5-11.37q15,2,21.63,2t9.44-1.62a5.71,5.71,0,0,0,2.81-5.37q0-3.75-2.69-5.19t-12.87-3.12q-10.19-1.69-14.94-5.31t-4.75-13.25q0-9.62,6.56-14.37t16.81-4.75a119.19,119.19,0,0,1,19.63,2l3.88,0.75Z" style="fill:#d74034"/><path d="M975.23,258.4H958v27.5q0,7.63,1.13,10.13t5.75,2.5l10.25-.37L975.73,309A73,73,0,0,1,963,310.65q-10.63,0-14.56-4.87t-3.94-18.37v-29h-8V246.78h8V228.65H958v18.13h17.25V258.4Z" style="fill:#d74034"/><path d="M1032.61,266v28.5a5.93,5.93,0,0,0,1.44,4.06,6.92,6.92,0,0,0,4.06,1.69l-0.37,10.38q-10.75,0-16.62-4.62a47.55,47.55,0,0,1-20.12,4.63q-18.63,0-18.63-19.87,0-9.5,5.06-13.75T1003,271.9l16.13-1.37V266q0-5-2.19-7t-6.44-2q-8,0-20,1l-4,.25-0.5-9.62A108.67,108.67,0,0,1,1011,245.4q11.44,0,16.5,4.94T1032.61,266Zm-28,15.5q-8.63.75-8.63,9.38t7.63,8.63a48.27,48.27,0,0,0,13.25-2l2.25-.75V280.15Z" style="fill:#d74034"/><path d="M1049.73,309.28v-62.5h13.5v7.5a59.43,59.43,0,0,1,21.25-8.87V259a87.74,87.74,0,0,0-18.37,5.5l-2.75,1.13v43.63h-13.62Z" style="fill:#d74034"/><path d="M1128.48,258.4h-17.25v27.5q0,7.63,1.13,10.13t5.75,2.5l10.25-.37L1129,309a73,73,0,0,1-12.75,1.63q-10.63,0-14.56-4.87t-3.94-18.37v-29h-8V246.78h8V228.65h13.5v18.13h17.25V258.4Z" style="fill:#d74034"/><path d="M1177.48,246.78H1191v62.5h-13.5V305.4q-9.13,5.25-16.87,5.25-12.88,0-17.25-6.94T1139,279.4V246.78h13.63v32.75q0,11.25,1.88,15.13t8.75,3.88a30.11,30.11,0,0,0,12.38-2.5l1.88-.75v-48.5Z" style="fill:#d74034"/><path d="M1207.48,336.15V246.78H1221v3.88q8.63-5.25,16.13-5.25,12.38,0,18.13,7.56t5.75,25.37q0,17.81-6.56,25.06T1233,310.65a73.31,73.31,0,0,1-11.87-1.12v26.63h-13.62Zm27.25-78.62a28.59,28.59,0,0,0-11.75,2.63l-1.87.88V297.9a56.08,56.08,0,0,0,11,1q8.5,0,11.75-4.87t3.25-16.62Q1247.1,257.53,1234.73,257.53Z" style="fill:#d74034"/><path d="M1345.48,259.65q-14.75-2-21.37-2t-9.19,1.56a5.36,5.36,0,0,0-2.56,4.94,4.86,4.86,0,0,0,2.81,4.75q2.81,1.38,13.25,3.19t14.81,5.69q4.37,3.88,4.38,13.75t-6.31,14.5q-6.31,4.63-18.44,4.63a111,111,0,0,1-19.25-2.12l-3.87-.62,0.5-11.37q15,2,21.63,2t9.44-1.62a5.71,5.71,0,0,0,2.81-5.37q0-3.75-2.69-5.19t-12.87-3.12q-10.19-1.69-14.94-5.31t-4.75-13.25q0-9.62,6.56-14.37t16.81-4.75a119.19,119.19,0,0,1,19.63,2l3.88,0.75Z" style="fill:#d74034"/><path d="M1374.35,309.28h-13.62v-88.5h13.63V250q9.25-4.62,17.13-4.62,12.5,0,17.06,7.06t4.56,23.31v33.5h-13.62V276.15q0-10.12-2.12-14.37t-9-4.25a37.79,37.79,0,0,0-12,2l-2,.75v49Z" style="fill:#d74034"/><path d="M1473.47,298l3.5-.37,0.25,10.13a129.48,129.48,0,0,1-25.25,2.88q-13.87,0-19.94-7.62T1426,278.65q0-33.25,27.13-33.25,26.25,0,26.25,28.62l-0.87,9.75h-38.75q0.12,7.75,3.38,11.38t12.13,3.63Q1464.1,298.78,1473.47,298Zm-7.5-24.75q0-9.25-2.94-12.94t-9.94-3.69q-7,0-10.19,3.88t-3.31,12.75H1466Z" style="fill:#d74034"/><path d="M1493.22,309.28v-88.5h13.63v88.5h-13.62Z" style="fill:#d74034"/><path d="M1524.85,309.28v-88.5h13.63v88.5h-13.62Z" style="fill:#d74034"/></svg>