<svg id="Pictorial_-_White_on_Red" data-name="Pictorial - White on Red" xmlns="http://www.w3.org/2000/svg" viewBox="0 0 800 800"><title>pictorial_white-on-red</title><rect id="Background" width="800" height="800" style="fill:#d74034"/><path id="Logo" d="M210.36,447.23l-54.07,23.91c-21.09,9.33-42.16,18.74-63.31,27.93-2.18.95-6,2.25-7.34,1s-0.18-4.72.44-6.88c4.34-15.12,9-30.15,13.17-45.33a10.76,10.76,0,0,0-1.45-8.22c-7-9.19-14.34-18.11-21.91-26.83-2.84-3.27-3.53-6.09-2-10.18a256.26,256.26,0,0,0,8-24.64,11.64,11.64,0,0,0-1.57-8.77C71.12,356.91,61.45,345,52,333c-4.92-6.27-4.38-8.09,3.23-9.35,30.84-5.1,61.71-10.06,92.57-15.07,8.32-1.35,16.8-2.05,24.92-4.17,17.56-4.59,34.84-1.14,52.2.75,9.92,1.08,19.85,2.14,29.74,3.5,4.15,0.57,6.36-.83,8.33-4.51,11.09-20.74,22.44-41.35,33.72-62,4.59-8.41,4.62-8.4,12-2.76,16.93,13,33.75,26.07,50.87,38.78,2.94,2.18,10.77,3.77,10.77,3.77s24.11,2.83,34.34-.88,37.31-29.07,41.7-33.73c5.69-6,11.76-7,19.68-5.33,18.64,4,37.44,7.18,56.23,10.42,4.1,0.71,6.11,2.46,7.29,6.41,4.57,15.29,9.27,30.54,14.36,45.66a13.87,13.87,0,0,0,6,7.14q24.87,13.48,50.17,26.15a25.37,25.37,0,0,0,10.81,2.35c42.88,0.4,85.77.59,128.65,0.85a37.19,37.19,0,0,1,6.65.21c1.81,0.34,4.41,1,4.94,2.31s-0.81,3.67-2,5c-28.37,33.33-56.59,66.79-85.44,99.7-6.35,7.24-14.9,12.57-22.56,18.63q-59.32,46.93-118.82,93.63a20.88,20.88,0,0,1-12,4.13c-36.66,0-73.32-.53-110-1a10.48,10.48,0,0,1-5.54-1.34c-18.87-12.91-37.76-25.8-56.33-39.13-4.8-3.45-8.77-3.55-14-1.57-32,12-64,23.75-96.06,35.53-7.91,2.91-9,1.93-8-6.26q3.92-31.37,7.62-62.76a9.94,9.94,0,0,0-.71-5.09C221.86,471.34,216.3,459.75,210.36,447.23Zm42-53.29,0.66,1.72,143.66-4.48-32.6-97.62Zm260.52,6.81,5.15,145.84,1.53,0.23,70.6-132.05ZM184.76,308.84L57.12,329.74l58.79,73.39Zm6.7,1.4-69,94.51,114.39-7.56ZM596.24,416.73l-70,130.85,1.35,1L653.41,449.2ZM246.66,402.2L303.36,465l88.27-65.78-0.7-1.49ZM505.44,557.71l-105.3-77.83c0,24.42,0,48.59,0,72.75,0,3.84,1.81,5,5.34,4.93,6.88-.08,13.76.14,20.64,0.14C451.8,557.72,477.51,557.71,505.44,557.71ZM400.54,472.4l104.54,77.29,1.25-.94L457.61,441Zm-102.81-2.79-57-32.75L227.51,543.34l1.61,0.71ZM506.68,403.2c-13.82,10.84-26.21,20.87-39,30.39-4.19,3.12-4.12,5.76-2.17,10,14.4,31.44,28.58,63,42.85,94.49,0.68,1.49,1.56,2.89,3.3,6.1Zm154.63,38.57,79.38-92.87-79.38,15.35v77.52ZM542,319.23l-28.15,75.3,75.32,13.64ZM354.94,293.44l-0.27-1.08c-28.67,7.41-57.36,14.76-86,22.42-1.51.41-3.16,3.41-3.29,5.3-0.47,6.63-.35,13.3-0.37,20,0,11.2,0,22.4,0,34.12Zm43.12,108.83L314.23,464.7c24.86,2.26,49.2,3,73.54,3.89,4.2,0.15,4.55-2.39,4.82-5.49,0.77-8.84,1.69-17.66,2.49-26.5C396.07,425.65,397,414.69,398.06,402.27ZM459.89,247.6l3,87.58,56.36-76.64Zm-156.62-4.55-34.5,63.3,1.37,1.44L358,285ZM116.45,414.89l-24,77.6,71.62-32.19Zm211.66,98.76L302.19,474l-66.88,72.62,0.89,1Zm77.32-126.5,50-43-47.33-50.71Zm59.94-41.59,43,45.57,27.66-73.87ZM256.9,315.21l-59.34-6.84,39.55,75.75ZM339.51,516.5l53.33,36.61V477.33Zm314.27-74.33V368.91L600.54,412ZM455.93,430.36V352l-48.84,42Zm0.66-94.15-3-86.7L410,286.23ZM126.68,413c14.79,15,28.38,29,42.25,42.66,1.11,1.09,4.47.89,6.27,0.12,15.68-6.72,31.26-13.7,46.84-20.64a41.44,41.44,0,0,0,4.41-2.82Zm397.4-150.51L470.5,335.34c22.26-7.48,43.74-16,65.12-24.82,1.14-.47,2.3-3.34,1.92-4.64C533.34,291.74,528.84,277.69,524.08,262.52ZM404.69,400l-6.21,66.39,54.8-30.24ZM463,429.51l41.87-33L463,352.21v77.3ZM550.5,319.14l-1,.92,42.71,80.42c0.76-1.78,1.28-2.52,1.37-3.3,1.86-16.5,3.72-33,5.37-49.53a5.18,5.18,0,0,0-2.08-4.16C581.49,335.25,566,327.22,550.5,319.14ZM308.65,472.37l26,40,49.25-36.25-0.58-1.35Zm89.57-96.44,1.16-.21L402,289.26H369.3ZM599,405.22L651.18,363l-46-14.41ZM235.89,427.77L238,403.49l-90.67,5.92-0.08,1.2ZM621.51,347c10.18,3.25,19.43,6.31,28.75,9.11,3.14,0.94,6.63,2.18,9.69,1.66,16.88-2.86,33.67-6.23,50.49-9.42L710.3,347H621.51ZM243.95,408.51c-0.6,7.44-1.26,13.1-1.37,18.78a6.28,6.28,0,0,0,2.51,4.7c12.91,7.66,26,15.07,39,22.54l0.66-.8Zm-2.7-15.69,1.76,0.92c2.71-2.47,5.56-4.8,8.09-7.43s6.23-5.21,6.37-8c0.66-13.55.3-27.15,0.3-40.73l-0.75-.17ZM80.17,403.91h28.76L88.27,379.12Zm31.36,7H83l20.23,24.84Zm118.29,62.73,4.54-37.09-18.17,8.29Z" style="fill:#fff;stroke:#fff;stroke-miterlimit:10;stroke-width:5px"/></svg>